<mxfile host="Electron" agent="Mozilla/5.0 (Windows NT 10.0; Win64; x64) AppleWebKit/537.36 (KHTML, like Gecko) draw.io/24.7.17 Chrome/128.0.6613.36 Electron/32.0.1 Safari/537.36" version="24.7.17">
  <diagram name="Page-1" id="b5lOJseK_sH6-5dRei7l">
    <mxGraphModel dx="1050" dy="621" grid="1" gridSize="10" guides="1" tooltips="1" connect="1" arrows="1" fold="1" page="1" pageScale="1" pageWidth="827" pageHeight="1169" math="0" shadow="0">
      <root>
        <mxCell id="0" />
        <mxCell id="1" parent="0" />
        <mxCell id="5cJZjPvlyaRLwFl49vr9-1" value="" style="rounded=0;whiteSpace=wrap;html=1;" parent="1" vertex="1">
          <mxGeometry x="340" y="40" width="190" height="370" as="geometry" />
        </mxCell>
        <mxCell id="5cJZjPvlyaRLwFl49vr9-3" value="Add Asset" style="ellipse;whiteSpace=wrap;html=1;" parent="1" vertex="1">
          <mxGeometry x="375" y="50" width="120" height="80" as="geometry" />
        </mxCell>
        <mxCell id="5cJZjPvlyaRLwFl49vr9-4" value="Authenticate User" style="ellipse;whiteSpace=wrap;html=1;" parent="1" vertex="1">
          <mxGeometry x="375" y="140" width="120" height="80" as="geometry" />
        </mxCell>
        <mxCell id="5cJZjPvlyaRLwFl49vr9-5" value="Logout User" style="ellipse;whiteSpace=wrap;html=1;" parent="1" vertex="1">
          <mxGeometry x="375" y="230" width="120" height="80" as="geometry" />
        </mxCell>
        <mxCell id="5cJZjPvlyaRLwFl49vr9-13" style="edgeStyle=orthogonalEdgeStyle;rounded=0;orthogonalLoop=1;jettySize=auto;html=1;entryX=0;entryY=0.5;entryDx=0;entryDy=0;" parent="1" source="5cJZjPvlyaRLwFl49vr9-9" target="5cJZjPvlyaRLwFl49vr9-3" edge="1">
          <mxGeometry relative="1" as="geometry">
            <Array as="points">
              <mxPoint x="200" y="210" />
              <mxPoint x="200" y="90" />
            </Array>
          </mxGeometry>
        </mxCell>
        <mxCell id="5cJZjPvlyaRLwFl49vr9-14" style="edgeStyle=orthogonalEdgeStyle;rounded=0;orthogonalLoop=1;jettySize=auto;html=1;entryX=0;entryY=0.5;entryDx=0;entryDy=0;" parent="1" source="5cJZjPvlyaRLwFl49vr9-9" target="5cJZjPvlyaRLwFl49vr9-4" edge="1">
          <mxGeometry relative="1" as="geometry">
            <Array as="points">
              <mxPoint x="370" y="210" />
            </Array>
          </mxGeometry>
        </mxCell>
        <mxCell id="5cJZjPvlyaRLwFl49vr9-9" value="User" style="shape=umlActor;verticalLabelPosition=bottom;verticalAlign=top;html=1;outlineConnect=0;" parent="1" vertex="1">
          <mxGeometry x="50" y="180" width="30" height="60" as="geometry" />
        </mxCell>
        <mxCell id="5cJZjPvlyaRLwFl49vr9-15" style="edgeStyle=orthogonalEdgeStyle;rounded=0;orthogonalLoop=1;jettySize=auto;html=1;entryX=0;entryY=0.63;entryDx=0;entryDy=0;entryPerimeter=0;" parent="1" source="5cJZjPvlyaRLwFl49vr9-9" target="5cJZjPvlyaRLwFl49vr9-5" edge="1">
          <mxGeometry relative="1" as="geometry">
            <Array as="points">
              <mxPoint x="200" y="210" />
              <mxPoint x="200" y="280" />
            </Array>
          </mxGeometry>
        </mxCell>
        <mxCell id="5cJZjPvlyaRLwFl49vr9-17" value="&lt;font style=&quot;font-size: 16px;&quot;&gt;Asset Tracking System&lt;/font&gt;" style="text;html=1;align=center;verticalAlign=middle;resizable=0;points=[];autosize=1;strokeColor=none;fillColor=none;" parent="1" vertex="1">
          <mxGeometry x="340" y="10" width="190" height="30" as="geometry" />
        </mxCell>
        <mxCell id="UaktsBe1DCVyIn7FpkjJ-1" value="Display Welcome Panel" style="ellipse;whiteSpace=wrap;html=1;" vertex="1" parent="1">
          <mxGeometry x="375" y="320" width="120" height="80" as="geometry" />
        </mxCell>
        <mxCell id="UaktsBe1DCVyIn7FpkjJ-3" style="edgeStyle=orthogonalEdgeStyle;rounded=0;orthogonalLoop=1;jettySize=auto;html=1;exitX=1;exitY=0.3333333333333333;exitDx=0;exitDy=0;exitPerimeter=0;entryX=0.025;entryY=0.6;entryDx=0;entryDy=0;entryPerimeter=0;" edge="1" parent="1" source="5cJZjPvlyaRLwFl49vr9-9" target="UaktsBe1DCVyIn7FpkjJ-1">
          <mxGeometry relative="1" as="geometry">
            <Array as="points">
              <mxPoint x="70" y="210" />
              <mxPoint x="200" y="210" />
              <mxPoint x="200" y="368" />
            </Array>
          </mxGeometry>
        </mxCell>
      </root>
    </mxGraphModel>
  </diagram>
</mxfile>
